<svg xmlns="http://www.w3.org/2000/svg" width="22" height="22" fill="white" class="bi bi-graph-up" viewBox="0 0 22 22">
  <rect fill="#623cc9" x="0" width="22" height="22" rx="4" />
  <path transform="translate(3,3)" style="box-shadow: 1px 1px 2px white;" fill-rule="evenodd" d="M0 0h1v15h15v1H0V0Zm14.817 3.113a.5.5 0 0 1 .07.704l-4.5 5.5a.5.5 0 0 1-.74.037L7.06 6.767l-3.656 5.027a.5.5 0 0 1-.808-.588l4-5.5a.5.5 0 0 1 .758-.06l2.609 2.61 4.15-5.073a.5.5 0 0 1 .704-.07Z"/>
  <path transform="translate(3.3,3)" style="box-shadow: 1px 1px 2px white;" fill-rule="evenodd" d="M0 0h1v15h15v1H0V0Zm14.817 3.113a.5.5 0 0 1 .07.704l-4.5 5.5a.5.5 0 0 1-.74.037L7.06 6.767l-3.656 5.027a.5.5 0 0 1-.808-.588l4-5.5a.5.5 0 0 1 .758-.06l2.609 2.61 4.15-5.073a.5.5 0 0 1 .704-.07Z"/>
  <path transform="translate(3,3.3)" style="box-shadow: 1px 1px 2px white;" fill-rule="evenodd" d="M0 0h1v15h15v1H0V0Zm14.817 3.113a.5.5 0 0 1 .07.704l-4.5 5.5a.5.5 0 0 1-.74.037L7.06 6.767l-3.656 5.027a.5.5 0 0 1-.808-.588l4-5.5a.5.5 0 0 1 .758-.06l2.609 2.61 4.15-5.073a.5.5 0 0 1 .704-.07Z"/>
</svg>